<svg width="40" height="36" viewBox="0 0 40 36" fill="none" xmlns="http://www.w3.org/2000/svg">
<path d="M10.7293 12.2126C10.5974 11.7841 10.5315 11.4215 10.5315 11.1248C10.5315 10.7952 10.548 10.4326 10.581 10.0371C10.6139 9.64153 10.6799 9.09765 10.7787 8.40544C10.9106 7.71323 11.1413 7.0375 11.471 6.37824C11.8006 5.68603 12.1796 5.02678 12.6082 4.4005C13.0367 3.77421 13.5806 3.19736 14.2398 2.66996C14.932 2.14256 15.6902 1.68109 16.5142 1.28554C18.2612 0.428513 20.3873 0 22.8925 0C27.9357 0 32.0396 1.68109 35.204 5.04326C38.4013 8.37248 40 12.6411 40 17.8492C40 23.0573 38.1211 27.3918 34.3634 30.8529C30.6057 34.281 25.8426 35.9951 20.0742 35.9951C14.3057 35.9951 9.50968 34.281 5.68603 30.8529C1.89534 27.4248 0 22.9749 0 17.5031C0 13.9761 0.824063 10.8447 2.47219 8.10878C4.12031 5.37289 6.47713 3.23033 9.54265 1.68109L9.83931 2.12608C7.69674 3.54347 6.14751 5.58715 5.19159 8.25711C4.26864 10.9271 3.80717 13.7618 3.80717 16.7614C3.80717 22.3321 5.32345 26.6831 8.356 29.8146C11.3885 32.946 15.2781 34.5117 20.0247 34.5117C24.7713 34.5117 28.6444 32.946 31.644 29.8146C34.6766 26.6502 36.1928 22.4969 36.1928 17.3548C36.1928 12.9048 34.9897 9.1471 32.5834 6.08158C30.2101 3.01607 26.848 1.48331 22.4969 1.48331C20.5521 1.48331 18.7886 1.82942 17.2064 2.52163C14.3387 3.74124 12.4433 5.75196 11.5204 8.55377C11.2567 9.37783 11.1248 10.0865 11.1248 10.6799C11.1248 11.2732 11.1578 11.7511 11.2237 12.1137L10.7293 12.2126Z" fill="#9ECDFB"/>
</svg>
