<svg width="25" height="24" viewBox="0 0 25 24" fill="none" xmlns="http://www.w3.org/2000/svg">
  <g clipPath="url(#clip0_148_966)">
    <path d="M24.6667 12C24.6667 5.3726 19.2942 0 12.6667 0C6.03933 0 0.666748 5.3726 0.666748 12C0.666748 17.9896 5.05498 22.954 10.7917 23.8542V15.4688H7.74487V12H10.7917V9.35627C10.7917 6.34877 12.5833 4.68752 15.3243 4.68752C16.6372 4.68752 18.0105 4.9219 18.0105 4.9219V7.87502H16.4973C15.0066 7.87502 14.5417 8.80003 14.5417 9.74902V12H17.8699L17.3378 15.4688H14.5417V23.8542C20.2785 22.954 24.6667 17.9896 24.6667 12Z" fill="currentColor"/>
    <path d="M17.3378 15.4688L17.8699 12H14.5417V9.74899C14.5417 8.80001 15.0066 7.875 16.4973 7.875H18.0105V4.92188C18.0105 4.92188 16.6372 4.6875 15.3243 4.6875C12.5833 4.6875 10.7917 6.34875 10.7917 9.35625V12H7.74487V15.4688H10.7917V23.8542C11.4027 23.9501 12.0289 24 12.6667 24C13.3046 24 13.9308 23.9501 14.5417 23.8542V15.4688H17.3378Z" fill="currentColor"/>
  </g>
  <defs>
    <clipPath id="clip0_148_966">
      <rect width="24" height="24" fill="currentColor" transform="translate(0.666748)"/>
    </clipPath>
  </defs>
</svg>
