<svg width="24" height="24" viewBox="0 0 24 24" fill="none" xmlns="http://www.w3.org/2000/svg">
<g clipPath="url(#clip0_148_976)">
<path d="M0.00012207 11.5C0.00012207 6.07885 0.00012207 3.36827 1.68426 1.68413C3.36839 0 6.07897 0 11.5001 0H12.5001C17.9213 0 20.6319 0 22.316 1.68413C24.0001 3.36827 24.0001 6.07885 24.0001 11.5V12.5C24.0001 17.9212 24.0001 20.6318 22.316 22.3158C20.6319 24 17.9213 24 12.5001 24H11.5001C6.07897 24 3.36839 24 1.68426 22.3158C0.00012207 20.6318 0.00012207 17.9212 0.00012207 12.5L0.00012207 11.5Z" fill="#FFFCF8"/>
<path fillRule="evenodd" clipRule="evenodd" d="M6.50057 7.5H4.75017C4.25005 7.5 4.15002 7.7354 4.15002 7.9949C4.15002 8.45845 4.74345 10.7574 6.91312 13.798C8.35957 15.8744 10.3975 17 12.2519 17C13.3646 17 13.5022 16.75 13.5022 16.3194V14.75C13.5022 14.25 13.6076 14.1502 13.9599 14.1502C14.2196 14.1502 14.6646 14.28 15.7031 15.2812C16.89 16.4677 17.0856 17 17.7532 17H19.5036C20.0037 17 20.2538 16.75 20.1095 16.2567C19.9517 15.765 19.385 15.0515 18.6331 14.2059C18.2251 13.7238 17.6132 13.2047 17.4277 12.9451C17.1681 12.6114 17.2423 12.4631 17.4277 12.1665C17.4277 12.1665 19.5603 9.16295 19.7829 8.1433C19.8941 7.77245 19.7829 7.5 19.2535 7.5H17.5031C17.0581 7.5 16.8529 7.7354 16.7416 7.9949C16.7416 7.9949 15.8515 10.1641 14.5905 11.5732C14.1825 11.981 13.997 12.1108 13.7745 12.1108C13.6632 12.1108 13.5022 11.981 13.5022 11.6103V8.1433C13.5022 7.6983 13.373 7.5 13.0021 7.5H10.2514C9.97332 7.5 9.80602 7.7065 9.80602 7.90225C9.80602 8.32405 10.4365 8.42135 10.5015 9.6079V12.185C10.5015 12.75 10.3994 12.8525 10.1769 12.8525C9.58352 12.8525 8.14007 10.6736 7.28397 8.18035C7.11622 7.69575 6.94792 7.5 6.50057 7.5Z" fill="#171717"/>
</g>
<defs>
<clipPath id="clip0_148_976">
<rect width="24" height="24" fill="white"/>
</clipPath>
</defs>
</svg>
