<svg width="1280" height="308" viewBox="0 0 1280 308" fill="none" xmlns="http://www.w3.org/2000/svg">
<rect x="595" y="130" width="401" height="23" fill="#171717"/>
<path d="M0 129H248L0 212V129Z" fill="#171717"/>
<path d="M-1 220.5C125.631 156.145 212.872 137.342 365.499 128.276C521.646 119 665.667 168.057 818.525 179C972.186 190 1102.9 150.894 1281 65V1C1102.97 86.6889 1036.93 151.141 818.207 151.141C665.022 151.141 521.444 108.742 365.357 117.996C212.789 127.041 125.582 145.799 -1 210V220.5Z" fill="#171717"/>
<path d="M365.783 138.276C213.038 147.342 125.729 166.145 -1 230.5V240.499C125.729 176.144 213.038 157.341 365.783 148.275C409.673 145.67 463 153 514.5 162.5C566 172 715.425 218.948 812.194 239.999C922.272 263.945 1102.77 272.394 1281 186.5V125.5C1102.77 211.394 960.998 220.5 822.147 207C669.497 192.158 522.052 129 365.783 138.276Z" fill="#171717"/>
<path d="M365.499 128.276C212.872 137.342 125.631 156.145 -1 220.5V230.5C125.729 166.145 213.038 147.342 365.783 138.276C522.052 129 669.497 192.158 822.147 207C960.998 220.5 1102.77 211.394 1281 125.5V65C1102.9 150.894 972.186 190 818.525 179C665.667 168.057 521.646 119 365.499 128.276Z" fill="#171717"/>
<path d="M365.783 148.275C213.038 157.341 125.729 176.144 -1 240.499V250.498C52.3822 223.39 98.7698 201.582 146 188.214C210.894 169.846 318 161 365.499 159.5C399.131 158.438 461.478 163.53 509 179.5C599.138 205.503 690.35 250.453 786.315 279C875.398 305.5 1094.5 333 1281 262V186.5C1102.77 272.394 922.272 263.945 812.194 239.999C715.425 218.948 566 172 514.5 162.5C463 153 409.673 145.67 365.783 148.275Z" fill="#171717"/>
<path d="M-1 220.5C125.631 156.145 212.872 137.342 365.499 128.276C521.646 119 665.667 168.057 818.525 179C972.186 190 1102.9 150.894 1281 65M-1 220.5V210C125.582 145.799 212.789 127.041 365.357 117.996C521.444 108.742 665.022 151.141 818.207 151.141C1036.93 151.141 1102.97 86.6889 1281 1M-1 220.5V230.5M1281 65V1M1281 65V125.5M-1 230.5C125.729 166.145 213.038 147.342 365.783 138.276C522.052 129 669.497 192.158 822.147 207C960.998 220.5 1102.77 211.394 1281 125.5M-1 230.5V251M-1 230.5V240.499M1281 125.5V186.5M1281 125.5V1M-1 240.499C125.729 176.144 213.038 157.341 365.783 148.275C409.673 145.67 463 153 514.5 162.5C566 172 715.425 218.948 812.194 239.999C922.272 263.945 1102.77 272.394 1281 186.5M-1 240.499V250.498C52.3822 223.39 98.7698 201.582 146 188.214C210.894 169.846 318 161 365.499 159.5C399.131 158.438 461.478 163.53 509 179.5C599.138 205.503 690.35 250.453 786.315 279C875.398 305.5 1094.5 333 1281 262V186.5" stroke="#89A5C1"/>
</svg>
