<svg width="32" height="22" viewBox="0 0 32 22" fill="none" xmlns="http://www.w3.org/2000/svg">
<g clipPath="url(#clip0_148_971)">
<path d="M31.3453 3.43537C30.9849 2.08308 29.9233 1.01821 28.5751 0.656807C26.1317 0 16.3334 0 16.3334 0C16.3334 0 6.53521 0 4.09168 0.656807C2.74358 1.01821 1.6818 2.08308 1.3215 3.43537C0.666748 5.8863 0.666748 11 0.666748 11C0.666748 11 0.666748 16.1136 1.3215 18.5648C1.6818 19.9169 2.74358 20.9818 4.09168 21.3433C6.53521 22 16.3334 22 16.3334 22C16.3334 22 26.1317 22 28.5751 21.3433C29.9233 20.9818 30.9849 19.9169 31.3453 18.5648C32.0001 16.1136 32.0001 11 32.0001 11C32.0001 11 32.0001 5.8863 31.3453 3.43537Z" fill="#FFFCF8"/>
<path d="M13.1289 15.6428L21.3183 11.0002L13.1289 6.35713V15.6428Z" fill="#171717"/>
</g>
<defs>
<clipPath id="clip0_148_971">
<rect width="31.3333" height="22" fill="white" transform="translate(0.666748)"/>
</clipPath>
</defs>
</svg>
